<?xml version="1.0" encoding="UTF-8" standalone="no"?>
<!-- Created with Inkscape (http://www.inkscape.org/) -->

<svg
   xmlns:dc="http://purl.org/dc/elements/1.1/"
   xmlns:cc="http://creativecommons.org/ns#"
   xmlns:rdf="http://www.w3.org/1999/02/22-rdf-syntax-ns#"
   xmlns:svg="http://www.w3.org/2000/svg"
   xmlns="http://www.w3.org/2000/svg"
   xmlns:sodipodi="http://sodipodi.sourceforge.net/DTD/sodipodi-0.dtd"
   xmlns:inkscape="http://www.inkscape.org/namespaces/inkscape"
   width="765"
   height="990"
   id="svg2"
   version="1.1"
   inkscape:version="0.48.3.1 r9886"
   sodipodi:docname="face.svg">
  <defs
     id="defs4" />
  <sodipodi:namedview
     id="base"
     pagecolor="#ffffff"
     bordercolor="#666666"
     borderopacity="1.0"
     inkscape:pageopacity="0.0"
     inkscape:pageshadow="2"
     inkscape:zoom="0.24748737"
     inkscape:cx="389.28486"
     inkscape:cy="436.35089"
     inkscape:document-units="px"
     inkscape:current-layer="layer1"
     showgrid="false"
     inkscape:window-width="513"
     inkscape:window-height="425"
     inkscape:window-x="595"
     inkscape:window-y="158"
     inkscape:window-maximized="0"
     units="in" />
  <metadata
     id="metadata7">
    <rdf:RDF>
      <cc:Work
         rdf:about="">
        <dc:format>image/svg+xml</dc:format>
        <dc:type
           rdf:resource="http://purl.org/dc/dcmitype/StillImage" />
        <dc:title></dc:title>
      </cc:Work>
    </rdf:RDF>
  </metadata>
  <g
     inkscape:label="Layer 1"
     inkscape:groupmode="layer"
     id="layer1"
     transform="translate(0,-62.35975)">
    <path
       sodipodi:type="arc"
       style="opacity:0.98000004;fill:#ffff00;fill-opacity:1;fill-rule:nonzero;stroke:#000000;stroke-opacity:1"
       id="path2987"
       sodipodi:cx="391.42856"
       sodipodi:cy="523.79077"
       sodipodi:rx="242.85715"
       sodipodi:ry="242.85715"
       d="m 634.28571,523.79077 c 0,134.1263 -108.73085,242.85715 -242.85715,242.85715 -134.1263,0 -242.85715,-108.73085 -242.85715,-242.85715 0,-134.1263 108.73085,-242.85715 242.85715,-242.85715 134.1263,0 242.85715,108.73085 242.85715,242.85715 z" />
    <path
       sodipodi:type="arc"
       style="opacity:0.98000004;fill:#000000;fill-opacity:1;fill-rule:nonzero;stroke:#000000;stroke-opacity:1"
       id="path2989"
       sodipodi:cx="304.05591"
       sodipodi:cy="431.11838"
       sodipodi:rx="49.497475"
       sodipodi:ry="53.538086"
       d="m 353.55338,431.11838 c 0,29.56827 -22.16077,53.53808 -49.49747,53.53808 -27.3367,0 -49.49748,-23.96981 -49.49748,-53.53808 0,-29.56827 22.16078,-53.53809 49.49748,-53.53809 27.3367,0 49.49747,23.96982 49.49747,53.53809 z" />
    <path
       sodipodi:type="arc"
       style="opacity:0.98000004;fill:#000000;fill-opacity:1;fill-rule:nonzero;stroke:#000000;stroke-opacity:1"
       id="path2991"
       sodipodi:cx="490.93414"
       sodipodi:cy="465.46356"
       sodipodi:rx="50.507626"
       sodipodi:ry="55.558392"
       d="m 541.44177,465.46356 c 0,30.68405 -22.61304,55.55839 -50.50763,55.55839 -27.89459,0 -50.50762,-24.87434 -50.50762,-55.55839 0,-30.68405 22.61303,-55.55839 50.50762,-55.55839 27.89459,0 50.50763,24.87434 50.50763,55.55839 z"
       transform="matrix(0.84156839,0,0,0.84156839,79.799793,52.320988)" />
    <path
       sodipodi:type="arc"
       style="opacity:0.98000004;fill:#000000;fill-opacity:1;fill-rule:nonzero;stroke:#000000;stroke-opacity:1"
       id="path2993"
       sodipodi:cx="392.94934"
       sodipodi:cy="622.03717"
       sodipodi:rx="174.75639"
       sodipodi:ry="78.791901"
       d="m 567.70573,622.03717 c 0,43.51557 -78.2411,78.7919 -174.75639,78.7919 -96.51529,0 -174.75639,-35.27633 -174.75639,-78.7919 0,-43.51556 78.2411,-78.7919 174.75639,-78.7919 96.51529,0 174.75639,35.27634 174.75639,78.7919 z" />
  </g>
</svg>
